<svg data-v-fde0c5aa="" xmlns="http://www.w3.org/2000/svg" viewBox="0 0 300 300" class="iconAbove"><!----><defs data-v-fde0c5aa=""><!----></defs><rect data-v-fde0c5aa="" fill="#fff" x="0" y="0" width="300px" height="300px" class="logo-background-square"></rect><defs data-v-fde0c5aa=""><!----></defs><g data-v-fde0c5aa="" id="b1e24144-253f-4e4f-ac76-5523e3e0aed3" fill="#141414" transform="matrix(4.809523809523809,0,0,4.809523809523809,30.315001192547037,196.03333327599933)"><path d="M6.65 6.65L6.65 6.93L1.05 6.93L1.05 6.93Q1.05 8.47 1.73 9.39L1.73 9.39L1.73 9.39Q2.41 10.30 3.78 10.30L3.78 10.30L3.78 10.30Q5.10 10.30 5.73 9.65L5.73 9.65L5.73 9.65Q6.37 8.99 6.37 8.12L6.37 8.12L6.65 8.12L6.65 8.19L6.65 8.19Q6.65 9.11 5.92 9.85L5.92 9.85L5.92 9.85Q5.19 10.58 3.78 10.58L3.78 10.58L3.78 10.58Q2.27 10.58 1.52 9.58L1.52 9.58L1.52 9.58Q0.77 8.57 0.77 6.93L0.77 6.93L0.77 6.65L0.77 6.65Q0.77 5.01 1.50 4.00L1.50 4.00L1.50 4.00Q2.23 3.00 3.71 3.00L3.71 3.00L3.71 3.00Q5.19 3.00 5.92 4.00L5.92 4.00L5.92 4.00Q6.65 5.01 6.65 6.65L6.65 6.65ZM5.70 4.19L5.70 4.19L5.70 4.19Q5.03 3.28 3.71 3.28L3.71 3.28L3.71 3.28Q2.39 3.28 1.72 4.19L1.72 4.19L1.72 4.19Q1.05 5.11 1.05 6.65L1.05 6.65L6.37 6.65L6.37 6.65Q6.37 5.11 5.70 4.19ZM8.15 8.75L8.15 8.75L8.15 8.61L8.15 8.61Q8.15 8.01 8.34 7.59L8.34 7.59L8.34 7.59Q8.53 7.18 8.90 6.96L8.90 6.96L8.90 6.96Q9.27 6.73 9.60 6.64L9.60 6.64L9.60 6.64Q9.94 6.54 10.43 6.47L10.43 6.47L12.95 6.06L12.95 5.60L12.95 5.60Q12.95 4.49 12.52 3.88L12.52 3.88L12.52 3.88Q12.10 3.28 10.85 3.28L10.85 3.28L10.85 3.28Q9.60 3.28 9.18 3.88L9.18 3.88L9.18 3.88Q8.75 4.49 8.75 5.60L8.75 5.60L8.47 5.60L8.47 5.45L8.47 5.45Q8.47 3.00 10.85 3.00L10.85 3.00L10.85 3.00Q13.23 3.00 13.23 5.45L13.23 5.45L13.23 8.82L13.30 10.50L13.09 10.50L12.98 9.32L12.98 9.32Q12.08 10.58 10.22 10.58L10.22 10.58L10.22 10.58Q9.30 10.58 8.72 10.10L8.72 10.10L8.72 10.10Q8.15 9.62 8.15 8.75ZM10.23 10.30L10.23 10.30L10.23 10.30Q12.17 10.30 12.95 8.85L12.95 8.85L12.95 6.33L10.33 6.75L10.33 6.75Q9.41 6.92 8.92 7.29L8.92 7.29L8.92 7.29Q8.43 7.67 8.43 8.60L8.43 8.60L8.43 8.75L8.43 8.75Q8.43 9.41 8.90 9.86L8.90 9.86L8.90 9.86Q9.37 10.30 10.23 10.30ZM14.70 10.50L14.70 10.29L19.24 3.35L17.64 3.36L14.84 3.36L14.84 3.08L19.60 3.08L19.60 3.29L15.06 10.23L16.66 10.22L19.74 10.22L19.74 10.50L14.70 10.50ZM21.63 10.50L21.35 10.50L21.35-0.70L21.63-0.70L21.63 10.50ZM23.44 3.08L25.97 9.88L28.50 3.08L28.81 3.08L26.10 10.25L24.96 13.30L24.70 13.30L25.84 10.25L23.13 3.08L23.44 3.08ZM29.96 6.93L29.96 6.65L29.96 6.65Q29.96 4.98 30.70 3.99L30.70 3.99L30.70 3.99Q31.44 3.00 32.94 3.00L32.94 3.00L32.94 3.00Q34.26 3.00 34.87 3.75L34.87 3.75L34.87 3.75Q35.49 4.49 35.49 5.53L35.49 5.53L35.49 5.67L35.21 5.67L35.21 5.67Q35.21 4.59 34.66 3.93L34.66 3.93L34.66 3.93Q34.10 3.28 32.94 3.28L32.94 3.28L32.94 3.28Q31.61 3.28 30.93 4.18L30.93 4.18L30.93 4.18Q30.24 5.08 30.24 6.65L30.24 6.65L30.24 6.93L30.24 6.93Q30.24 8.50 30.93 9.40L30.93 9.40L30.93 9.40Q31.61 10.30 32.94 10.30L32.94 10.30L32.94 10.30Q34.10 10.30 34.66 9.70L34.66 9.70L34.66 9.70Q35.21 9.09 35.21 8.05L35.21 8.05L35.49 8.05L35.49 8.19L35.49 8.19Q35.49 9.17 34.87 9.88L34.87 9.88L34.87 9.88Q34.26 10.58 32.94 10.58L32.94 10.58L32.94 10.58Q31.44 10.58 30.70 9.59L30.70 9.59L30.70 9.59Q29.96 8.60 29.96 6.93L29.96 6.93ZM39.62 10.30L39.62 10.30L39.62 10.30Q40.73 10.30 41.36 9.83L41.36 9.83L41.36 9.83Q42.00 9.35 42.00 8.54L42.00 8.54L42.00 8.54Q42.00 7.63 41.43 7.29L41.43 7.29L41.43 7.29Q40.87 6.94 39.48 6.83L39.48 6.83L39.48 6.83Q38.08 6.69 37.56 6.25L37.56 6.25L37.56 6.25Q37.03 5.81 37.03 5.01L37.03 5.01L37.03 4.93L37.03 4.93Q37.03 4.06 37.72 3.53L37.72 3.53L37.72 3.53Q38.42 3.00 39.62 3.00L39.62 3.00L39.62 3.00Q42.21 3.00 42.21 5.40L42.21 5.40L42.21 5.46L41.93 5.46L41.93 5.46Q41.93 4.40 41.41 3.84L41.41 3.84L41.41 3.84Q40.88 3.28 39.62 3.28L39.62 3.28L39.62 3.28Q38.56 3.28 37.93 3.72L37.93 3.72L37.93 3.72Q37.31 4.17 37.31 4.97L37.31 4.97L37.31 4.97Q37.31 5.75 37.81 6.12L37.81 6.12L37.81 6.12Q38.32 6.48 39.76 6.61L39.76 6.61L39.76 6.61Q41.17 6.73 41.73 7.15L41.73 7.15L41.73 7.15Q42.28 7.56 42.28 8.50L42.28 8.50L42.28 8.58L42.28 8.58Q42.28 9.49 41.57 10.04L41.57 10.04L41.57 10.04Q40.85 10.58 39.62 10.58L39.62 10.58L39.62 10.58Q38.18 10.58 37.57 9.93L37.57 9.93L37.57 9.93Q36.96 9.28 36.96 8.32L36.96 8.32L36.96 8.26L37.24 8.26L37.24 8.26Q37.24 10.30 39.62 10.30ZM46.34 10.30L46.34 10.30L46.34 10.30Q47.45 10.30 48.08 9.83L48.08 9.83L48.08 9.83Q48.72 9.35 48.72 8.54L48.72 8.54L48.72 8.54Q48.72 7.63 48.15 7.29L48.15 7.29L48.15 7.29Q47.59 6.94 46.20 6.83L46.20 6.83L46.20 6.83Q44.80 6.69 44.28 6.25L44.28 6.25L44.28 6.25Q43.75 5.81 43.75 5.01L43.75 5.01L43.75 4.93L43.75 4.93Q43.75 4.06 44.44 3.53L44.44 3.53L44.44 3.53Q45.14 3.00 46.34 3.00L46.34 3.00L46.34 3.00Q48.93 3.00 48.93 5.40L48.93 5.40L48.93 5.46L48.65 5.46L48.65 5.46Q48.65 4.40 48.13 3.84L48.13 3.84L48.13 3.84Q47.60 3.28 46.34 3.28L46.34 3.28L46.34 3.28Q45.28 3.28 44.65 3.72L44.65 3.72L44.65 3.72Q44.03 4.17 44.03 4.97L44.03 4.97L44.03 4.97Q44.03 5.75 44.53 6.12L44.53 6.12L44.53 6.12Q45.04 6.48 46.48 6.61L46.48 6.61L46.48 6.61Q47.89 6.73 48.45 7.15L48.45 7.15L48.45 7.15Q49.00 7.56 49.00 8.50L49.00 8.50L49.00 8.58L49.00 8.58Q49.00 9.49 48.29 10.04L48.29 10.04L48.29 10.04Q47.57 10.58 46.34 10.58L46.34 10.58L46.34 10.58Q44.90 10.58 44.29 9.93L44.29 9.93L44.29 9.93Q43.68 9.28 43.68 8.32L43.68 8.32L43.68 8.26L43.96 8.26L43.96 8.26Q43.96 10.30 46.34 10.30Z"></path></g><defs data-v-fde0c5aa=""><!----></defs><g data-v-fde0c5aa="" id="d5454718-e6cc-48f3-9cdd-b30b053af6b9" stroke="none" fill="#141414" transform="matrix(4.103189150483261,0,0,4.103189150483261,15.641059997680031,40)"><path d="M0 32.82L32.75 0l32.74 32.82h-1.33l-6.72-.04L33.39 6.35l4.19 9.66 2.63 4.48 2.56-.38-.23 5.64 5.82 1.01-1.05 3.6-7.46 2.46H1.34z"></path></g><!----></svg>